<?xml version="1.0" standalone="no"?>
<!DOCTYPE svg PUBLIC "-//W3C//DTD SVG 20010904//EN"
 "http://www.w3.org/TR/2001/REC-SVG-20010904/DTD/svg10.dtd">
<svg version="1.0" xmlns="http://www.w3.org/2000/svg"
 width="512.000000pt" height="512.000000pt" viewBox="0 0 512.000000 512.000000"
 preserveAspectRatio="xMidYMid meet">
<metadata>
Created by potrace 1.11, written by Peter Selinger 2001-2013
</metadata>
<g transform="translate(0.000000,512.000000) scale(0.100000,-0.100000)"
fill="#000000" stroke="none">
<path d="M2377 4954 c-1 -1 -31 -5 -67 -8 -440 -45 -869 -218 -1225 -494 -311
-241 -574 -582 -729 -945 -77 -180 -152 -444 -171 -602 -20 -168 -22 -219 -20
-401 1 -111 4 -205 7 -210 3 -5 9 -36 12 -69 4 -33 9 -67 11 -75 2 -8 7 -30
10 -47 51 -301 209 -667 408 -944 63 -88 73 -101 182 -224 134 -152 357 -331
560 -450 246 -144 597 -267 855 -299 25 -3 68 -9 95 -13 127 -17 513 -7 634
17 25 5 62 12 81 14 19 3 71 15 115 26 575 149 1044 469 1381 943 46 64 84
120 84 123 0 3 8 18 19 32 54 78 158 301 212 457 30 87 73 249 84 315 3 19 8
42 10 50 3 13 10 62 21 155 2 17 6 81 9 143 l6 112 -1200 0 -1201 0 0 1200 0
1200 -91 -2 c-50 -2 -91 -4 -92 -4z"/>
<path d="M2716 3679 c1 -519 2 -947 3 -951 0 -4 449 -7 997 -7 l997 0 -7 107
c-8 133 -11 153 -37 276 -84 401 -317 780 -649 1055 -235 196 -582 359 -890
420 -146 28 -160 30 -295 37 l-120 6 1 -943z"/>
</g>
</svg>
